# xmcd CD database file
#
# Track frame offsets:
#	150
#	23179
#	44480
#	62111
#	77590
#	99430
#	120777
#	140072
#	158217
#	177745
#	205204
#	225818
#	240737
#	258540
#
# Disc length: 3685 seconds
#
# Revision: 0
# Processed by: cddbd v1.5.2PL0 Copyright (c) Steve Scherf et al.
# Submitted via: CDex 1.70beta2
#
DISCID=b80e630e
DTITLE=Restless Heart - 25 And Live
DYEAR=2007
DGENRE=Country
TTITLE0=Dancy's Dream
TTITLE1=The Bluest Eyes In Texas
TTITLE2=When She Cries
TTITLE3=A Tender Lie
TTITLE4=Fast Moving Train
TTITLE5=Tell Me What You Dream
TTITLE6=Long Lost Friend
TTITLE7=New York (Hold Her Tight)
TTITLE8=Let The Heartache Ride
TTITLE9=Hummingbird
TTITLE10=I'll Still Be Loving You
TTITLE11=That Rock Won't Roll
TTITLE12=Why Does It Have To Be (Wrong Or Right)
TTITLE13=Wheels
EXTD=YEAR: 2007
EXTT0=
EXTT1=
EXTT2=
EXTT3=
EXTT4=
EXTT5=
EXTT6=
EXTT7=
EXTT8=
EXTT9=
EXTT10=
EXTT11=
EXTT12=
EXTT13=
PLAYORDER=
